<?xml version="1.0" standalone="no"?><!DOCTYPE svg PUBLIC "-//W3C//DTD SVG 1.1//EN" "http://www.w3.org/Graphics/SVG/1.1/DTD/svg11.dtd"><svg class="icon" width="200px" height="200.00px" viewBox="0 0 1024 1024" version="1.1" xmlns="http://www.w3.org/2000/svg"><path fill="#333333" d="M1012.427321 128.090249C1015.561967 135.054366 1018.076974 143.264692 1020.008789 152.647922 1021.940611 161.957846 1022.888294 171.707609 1022.888294 181.860558 1022.888294 191.9402 1020.956479 202.093148 1017.092841 212.17279 1013.192755 222.325739 1006.996361 232.075502 998.503652 241.458732 989.20906 250.805309 980.8986 258.978983 973.499375 265.979753 966.136599 272.943869 959.757955 279.211573 954.326994 284.672907 948.1306 290.903958 942.298698 296.365292 936.904186 301.056907L719.556483 82.493614C728.851081 73.916754 739.895245 63.58054 752.652527 51.484969 765.446263 39.426052 776.089486 29.896209 784.618644 22.858786 795.480559 14.31858 806.706972 8.307448 818.334327 4.788737 829.961682 1.233372 841.37034-0.306064 852.596753 0.097122 863.823161 0.53696 874.648633 2.259663 885.146055 5.375189 895.57058 8.454061 904.719377 12.009426 912.410197 15.931323 928.703073 24.471529 946.709072 39.462705 966.464643 60.8682 986.256657 82.310348 1001.5654 104.70548 1012.427321 128.090249L1012.427321 128.090249 1012.427321 128.090249ZM107.133864 698.304762C111.799386 693.649801 122.624854 682.507213 139.683168 664.986965 156.741482 647.466712 178.027924 625.877953 203.578945 600.147376L288.396672 514.818625 382.545442 420.179949 632.36955 168.958616 849.680799 388.621507 599.820242 639.842839 506.874305 734.51817C475.855875 764.867055 448.008543 792.760172 423.186509 818.050913 398.400926 843.341648 377.87992 864.197348 361.623493 880.581348 345.367066 896.892041 335.671528 906.275271 332.57333 908.621079 324.84606 915.621848 315.91596 923.062454 305.855929 930.832942 295.795897 938.603429 285.334923 944.83448 274.509455 949.489442 263.647537 954.987429 247.755604 961.585015 226.833655 969.392156 205.911706 977.162644 184.042073 984.786517 161.188307 992.190475 138.334541 999.557774 116.647154 1005.972093 96.0897 1011.47008 75.568694 1016.821453 60.259951 1020.376815 50.19992 1021.916251 29.277971 1024.298712 15.317855 1021.146533 8.356022 1012.606327 1.394189 1004.066122-0.537628 989.624747 2.56057 969.355503 4.091444 958.432836 7.809281 942.67194 13.604734 921.999514 19.400187 901.363735 25.633032 879.958238 32.193922 857.746375 38.791261 835.57116 45.133455 815.118655 51.3663 796.388847 57.599146 777.659039 62.592712 764.830401 66.456347 757.829632 71.121869 746.943619 76.334131 737.010591 82.166034 728.030544 87.961486 719.160457 96.308396 709.190775 107.133864 698.304762L107.133864 698.304762 107.133864 698.304762ZM495.793691 955.353964C495.793691 935.194681 512.195916 918.70072 532.243079 918.70072L563.297958 918.70072C583.345124 918.70072 599.747345 935.194681 599.747345 955.353964L599.747345 986.106032C599.747345 1006.265321 583.345124 1022.759276 563.297958 1022.759276L532.243079 1022.759276C512.195916 1022.759276 495.793691 1006.265321 495.793691 986.106032L495.793691 955.353964 495.793691 955.353964ZM706.944996 955.353964C706.944996 935.194681 723.347223 918.70072 743.394384 918.70072L774.449266 918.70072C794.496427 918.70072 810.898654 935.194681 810.898654 955.353964L810.898654 986.106032C810.898654 1006.265321 794.496427 1022.759276 774.449266 1022.759276L743.394384 1022.759276C723.347223 1022.759276 706.944996 1006.265321 706.944996 986.106032L706.944996 955.353964 706.944996 955.353964ZM918.934636 955.353964C918.934636 935.194681 935.336863 918.70072 955.384024 918.70072L986.438906 918.70072C1006.486067 918.70072 1022.888294 935.194681 1022.888294 955.353964L1022.888294 986.106032C1022.888294 1006.265321 1006.486067 1022.759276 986.438906 1022.759276L955.384024 1022.759276C935.336863 1022.759276 918.934636 1006.265321 918.934636 986.106032L918.934636 955.353964 918.934636 955.353964Z" /></svg>