<?xml version="1.0" standalone="no"?><!DOCTYPE svg PUBLIC "-//W3C//DTD SVG 1.1//EN" "http://www.w3.org/Graphics/SVG/1.1/DTD/svg11.dtd"><svg class="icon" width="200px" height="200.00px" viewBox="0 0 1024 1024" version="1.1" xmlns="http://www.w3.org/2000/svg"><path d="M525.664 320.448c-0.24-20.384 9.216-36.304 18.416-51.776 12.128-20.448 24.688-41.6 15.952-70.672-8.88-26.672-25.712-39.76-40.624-51.392-20.064-15.568-34.544-26.816-26.992-69.488l0.656-3.664-21.6-3.808-0.64 3.632c-9.84 55.744 14.048 74.288 35.12 90.656 13.6 10.608 26.448 20.608 33.152 40.672 5.856 19.584-2.88 34.288-13.904 52.896-10.256 17.296-21.856 36.8-21.584 62.928-109.392 0.112-221.168 4.656-221.168 393.44 0 175.216 140.784 240.512 229.552 240.512 88.72 0 229.552-65.296 229.552-240.512 0-388.32-113.904-393.104-215.888-393.424z m-2.704 21.936c90.288 0.192 174.832 3.776 193.008 258.448-61.76 28.88-126.656 44.24-193.008 45.76v-47.456a29.248 29.248 0 0 0 23.696-28.512v-143.296a29.28 29.28 0 0 0-23.696-28.544v-56.4z m-16.432 77.68h10.96c3.984 0 7.248 3.28 7.248 7.264v143.296a7.216 7.216 0 0 1-7.248 7.184h-10.96a7.2 7.2 0 0 1-7.232-7.184v-143.296c0-3.984 3.248-7.264 7.232-7.264z m-5.52-77.68v56.4a29.248 29.248 0 0 0-23.664 28.544v143.296c0 13.968 10.144 25.92 23.664 28.512v47.456c-100.976-2.368-174.48-36.032-193.008-45.424 18.096-255.04 102.688-258.592 193.008-258.784zM512 932.384c-80.256 0-207.616-59.312-207.616-218.528 0-31.728 0.72-61.648 2.144-89.008 32.048 14.864 107.136 43.84 205.888 43.84 70.304 0 139.264-14.944 205.008-44.336 1.424 27.488 2.16 57.6 2.16 89.52 0 159.2-127.328 218.512-207.584 218.512z" fill="#4D4D4D" /><path d="M526.752 623.2c0-18.16 1.84-23.312 10.848-30.4l10.848-8.528v-84.496c0-84.336-0.016-84.512-10.848-95.344-8.912-8.912-10.848-15.04-10.848-34.512v-23.68h24.576c90.512 0 137.344 59.68 155.488 198.096 7.984 60.848 8.064 56.416-1.088 59.28-4.16 1.312-24.448 8.192-45.072 15.296-32.592 11.248-64.768 17.808-119.808 24.48l-14.096 1.696v-21.872zM503.76 573.472c-1.68-1.664-3.04-35.696-3.04-75.616 0-63.744 0.88-72.912 7.232-75.36 3.984-1.52 8.912-1.088 10.96 0.96s3.184 36.736 2.528 77.104c-1.008 62.176-2.224 73.568-7.92 74.672-3.68 0.704-8.08-0.08-9.76-1.76z" fill="#FFFFFF" /><path d="M487.04 927.12c-49.024-6.72-108.432-39.6-135.312-74.848-34.544-45.28-49.824-107.792-44.32-181.28l3.088-41.216 33.28 11.776c56.432 19.952 101.408 27.504 163.456 27.424 66.736-0.096 106.288-6.224 164.128-25.456 34.864-11.6 43.072-13.056 45.008-8 1.312 3.392 1.392 33.92 0.192 67.808-1.696 47.776-4.272 67.408-11.408 87.312-23.2 64.688-70.416 109.52-135.008 128.192-37.04 10.72-53.488 12.368-83.104 8.288z" fill="#FFFFFF" /><path d="M459.84 641.024c-39.312-4.56-84.656-15.632-119.664-29.232-15.52-6.016-28.688-11.264-29.28-11.68-2.432-1.664 12.256-99.872 18.688-124.864 22.736-88.368 68.88-128.992 146.464-128.992h24.672v26.032c0 19.792-1.504 26.032-6.256 26.032-3.456 0-9.312 4.336-13.024 9.648-5.536 7.888-6.752 24.432-6.752 91.536v81.92l13.008 12.16c10.816 10.08 13.024 15.52 13.024 32.096 0 13.376-1.792 19.776-5.44 19.392-2.976-0.32-18.912-2.144-35.424-4.048z" fill="#66CCFF" /></svg>